<?xml version="1.0" standalone="no"?>
<!DOCTYPE svg PUBLIC "-//W3C//DTD SVG 20010904//EN"
 "http://www.w3.org/TR/2001/REC-SVG-20010904/DTD/svg10.dtd">
<svg version="1.0" xmlns="http://www.w3.org/2000/svg"
 width="560.000000pt" height="560.000000pt" viewBox="0 0 560.000000 560.000000"
 preserveAspectRatio="xMidYMid meet">
<metadata>
Created by potrace 1.11, written by Peter Selinger 2001-2013
</metadata>
<g transform="translate(0.000000,560.000000) scale(0.100000,-0.100000)"
fill="#000000" stroke="none">
<path d="M580 5462 c-1 -75 -3 -315 -5 -532 -2 -217 -7 -793 -10 -1280 -3
-487 -8 -1196 -11 -1576 l-6 -692 79 -46 c43 -26 85 -51 93 -56 8 -5 58 -35
110 -65 52 -31 225 -134 384 -230 160 -96 292 -176 295 -177 3 -2 170 -101
369 -221 200 -120 377 -226 393 -235 25 -15 443 -265 549 -329 l36 -22 90 59
c49 32 94 64 101 69 7 6 14 11 17 11 3 0 40 24 84 53 43 28 191 125 328 215
611 401 700 459 877 575 103 67 303 199 445 292 l259 170 0 2073 c0 1886 -2
2072 -16 2073 -9 0 -305 1 -659 1 l-643 0 -86 -86 -86 -86 -118 0 c-66 0 -391
0 -724 0 -333 0 -630 0 -660 0 l-56 0 -38 84 -39 83 -294 2 c-161 1 -465 4
-675 6 l-383 5 0 -138z m1083 -194 c8 -13 23 -33 33 -44 11 -12 46 -56 79 -98
l60 -75 952 -1 952 0 88 120 88 119 448 1 447 0 0 -1845 0 -1845 -42 -26 c-24
-15 -65 -41 -93 -59 -27 -18 -120 -76 -205 -130 -143 -91 -242 -153 -330 -211
-19 -12 -316 -201 -659 -419 l-625 -396 -205 124 c-113 69 -467 283 -786 477
-319 194 -686 417 -815 495 l-235 142 3 944 c1 519 4 1302 7 1739 2 437 4 843
5 903 l0 107 409 0 409 0 15 -22z"/>
<path d="M1080 4792 c0 -84 12 -102 72 -109 69 -8 88 16 88 107 0 63 -2 70
-20 70 -18 0 -20 -7 -20 -59 0 -74 -6 -91 -34 -91 -36 0 -46 20 -46 87 0 56
-2 63 -20 63 -18 0 -20 -7 -20 -68z"/>
<path d="M1280 4771 c0 -84 2 -91 20 -91 16 0 19 8 22 62 l3 62 33 -62 c27
-50 38 -62 58 -62 24 0 24 1 24 90 0 83 -1 90 -20 90 -18 0 -20 -7 -20 -67 l0
-68 -34 65 c-27 52 -39 66 -60 68 l-26 3 0 -90z"/>
<path d="M1490 4770 c0 -83 1 -90 20 -90 19 0 20 7 20 90 0 83 -1 90 -20 90
-19 0 -20 -7 -20 -90z"/>
<path d="M1590 4779 c38 -101 36 -99 65 -99 29 0 27 -3 64 99 30 82 30 82 8
79 -17 -2 -27 -18 -47 -71 l-25 -67 -25 67 c-20 53 -31 69 -48 71 -22 3 -22 3
8 -79z"/>
<path d="M1770 4770 l0 -90 65 0 c51 0 65 3 65 15 0 11 -12 15 -45 15 -41 0
-45 2 -45 25 0 23 4 25 40 25 29 0 40 4 40 15 0 11 -11 15 -40 15 -33 0 -40 3
-40 20 0 17 7 20 45 20 33 0 45 4 45 15 0 12 -14 15 -65 15 l-65 0 0 -90z"/>
<path d="M1940 4770 c0 -83 1 -90 20 -90 16 0 20 7 20 36 0 31 3 35 23 32 13
-2 28 -15 37 -35 10 -22 22 -33 37 -33 20 0 22 3 12 27 -6 15 -15 33 -20 40
-7 8 -7 18 0 32 28 51 1 81 -75 81 l-54 0 0 -90z m95 35 c0 -14 -8 -21 -27
-23 -24 -3 -28 0 -28 23 0 23 4 26 28 23 19 -2 27 -9 27 -23z"/>
<path d="M2147 4842 c-35 -38 -17 -76 42 -88 36 -8 48 -21 32 -37 -8 -8 -22
-8 -51 0 -36 9 -40 8 -40 -7 0 -22 20 -30 69 -30 42 0 71 23 71 57 0 26 -17
40 -54 47 -35 6 -51 20 -42 35 9 14 42 14 67 0 18 -9 20 -8 17 13 -3 20 -10
23 -49 26 -34 2 -49 -2 -62 -16z"/>
<path d="M2310 4770 c0 -83 1 -90 20 -90 19 0 20 7 20 90 0 83 -1 90 -20 90
-19 0 -20 -7 -20 -90z"/>
<path d="M2400 4771 l0 -91 56 0 c48 0 59 4 85 29 36 37 38 79 6 117 -20 23
-34 28 -85 32 l-62 4 0 -91z m110 39 c39 -39 14 -100 -42 -100 -28 0 -28 1
-28 60 0 57 1 60 25 60 14 0 34 -9 45 -20z"/>
<path d="M2652 4843 c-6 -10 -19 -43 -30 -73 -11 -30 -23 -63 -27 -72 -10 -26
31 -24 45 2 15 28 73 27 92 -1 7 -12 21 -20 30 -18 14 4 12 15 -16 89 -28 75
-35 85 -58 88 -18 2 -30 -3 -36 -15z m58 -89 c0 -2 -12 -4 -26 -4 -21 0 -25 3
-19 18 4 9 10 25 13 36 4 15 7 12 18 -14 8 -18 14 -34 14 -36z"/>
<path d="M2800 4770 l0 -92 62 4 c51 4 65 9 85 32 12 15 23 40 23 56 0 16 -11
41 -23 56 -20 23 -34 28 -85 32 l-62 4 0 -92z m108 44 c43 -30 13 -104 -43
-104 -24 0 -25 3 -25 60 0 56 2 60 23 60 12 0 33 -7 45 -16z"/>
<path d="M3100 4770 l0 -92 62 4 c51 4 65 9 85 32 12 15 23 40 23 56 0 16 -11
41 -23 56 -20 23 -34 28 -85 32 l-62 4 0 -92z m108 44 c43 -30 16 -104 -39
-104 -29 0 -29 0 -29 60 0 56 2 60 23 60 12 0 33 -7 45 -16z"/>
<path d="M3310 4770 l0 -90 65 0 c51 0 65 3 65 15 0 11 -12 15 -45 15 -41 0
-45 2 -45 25 0 23 4 25 40 25 29 0 40 4 40 15 0 11 -11 15 -40 15 -33 0 -40 3
-40 20 0 17 7 20 45 20 33 0 45 4 45 15 0 12 -14 15 -65 15 l-65 0 0 -90z"/>
<path d="M3587 4842 c-35 -38 -17 -76 42 -88 36 -8 48 -21 32 -37 -8 -8 -22
-8 -51 0 -36 9 -40 8 -40 -7 0 -22 20 -30 69 -30 42 0 71 23 71 57 0 25 -17
40 -53 47 -35 6 -47 14 -47 32 0 17 42 19 71 3 18 -9 20 -8 17 13 -3 20 -10
23 -49 26 -34 2 -49 -2 -62 -16z"/>
<path d="M3750 4792 c0 -85 20 -112 80 -112 62 0 80 25 80 110 0 63 -2 70 -20
70 -18 0 -20 -7 -20 -59 0 -74 -6 -91 -34 -91 -36 0 -46 20 -46 87 0 56 -2 63
-20 63 -18 0 -20 -7 -20 -68z"/>
<path d="M3969 4831 c-35 -35 -38 -77 -9 -114 36 -45 140 -50 140 -6 0 16 -3
18 -19 9 -34 -18 -69 -12 -87 14 -35 55 14 112 76 89 26 -10 30 -9 30 7 0 21
-19 30 -67 30 -25 0 -43 -8 -64 -29z"/>
<path d="M4130 4770 c0 -83 1 -90 20 -90 16 0 20 7 20 35 0 29 4 35 20 35 13
0 28 -13 41 -35 12 -21 29 -35 40 -35 18 0 19 2 3 38 -18 40 -18 44 -9 83 10
40 -16 59 -81 59 l-54 0 0 -90z m95 35 c0 -14 -8 -21 -27 -23 -24 -3 -28 0
-28 23 0 23 4 26 28 23 19 -2 27 -9 27 -23z"/>
<path d="M4320 4770 l0 -90 65 0 c51 0 65 3 65 15 0 11 -12 15 -45 15 -41 0
-45 2 -45 25 0 23 4 25 40 25 29 0 40 4 40 15 0 11 -11 15 -40 15 -33 0 -40 3
-40 20 0 17 7 20 45 20 33 0 45 4 45 15 0 12 -14 15 -65 15 l-65 0 0 -90z"/>
<path d="M1279 4525 c-1 0 -3 -654 -6 -1452 l-5 -1452 244 166 c134 92 289
199 345 237 56 39 145 100 198 136 101 69 429 293 555 380 41 28 172 118 290
199 118 80 445 304 725 496 281 192 539 369 575 393 36 25 70 50 75 57 6 8 10
164 10 426 l-1 414 -174 1 c-96 0 -180 -1 -186 -3 -8 -3 -11 -92 -11 -289 0
-157 -5 -289 -9 -293 -5 -5 -324 -228 -709 -496 -385 -269 -875 -612 -1090
-762 -214 -150 -391 -267 -393 -260 -1 7 -3 482 -5 1057 l-2 1045 -212 0
c-117 0 -213 0 -214 0z"/>
<path d="M4610 4060 c-8 -5 -50 -22 -92 -37 -75 -26 -78 -29 -78 -59 0 -31 2
-32 98 -66 95 -34 97 -35 100 -14 3 13 -4 26 -17 34 -29 20 -30 82 -1 89 14 4
20 14 20 34 0 30 -5 34 -30 19z m-43 -117 c-3 -2 -18 2 -34 10 -28 15 -27 17
17 30 14 4 28 -28 17 -40z"/>
<path d="M4390 3827 c0 -8 7 -20 15 -27 12 -10 15 -10 15 3 0 8 -7 20 -15 27
-12 10 -15 10 -15 -3z"/>
<path d="M4440 3805 l0 -25 100 0 100 0 0 25 0 25 -100 0 -100 0 0 -25z"/>
<path d="M1055 3712 l-100 -37 0 -35 c0 -34 1 -35 80 -63 44 -15 88 -32 97
-37 26 -14 28 -13 28 19 0 20 -6 30 -20 34 -16 4 -20 14 -20 47 0 33 4 43 20
47 14 4 20 14 20 34 0 16 -1 29 -2 28 -2 0 -48 -17 -103 -37z m25 -71 c0 -28
-1 -29 -30 -18 -37 14 -38 20 -2 34 15 6 28 11 30 12 1 1 2 -12 2 -28z"/>
<path d="M4530 3700 c0 -29 4 -40 15 -40 8 0 15 7 15 15 0 9 9 15 25 15 20 0
25 -5 25 -25 0 -54 -69 -83 -118 -49 -24 16 -28 47 -12 88 8 22 7 26 -9 26
-25 0 -30 -17 -27 -80 3 -67 35 -100 97 -100 70 0 111 68 95 155 -7 34 -8 35
-56 35 l-50 0 0 -40z"/>
<path d="M4215 3560 c-38 -27 -126 -88 -195 -135 -69 -48 -152 -106 -185 -129
-33 -23 -168 -117 -300 -209 -132 -92 -247 -171 -255 -177 -48 -33 -206 -144
-275 -191 -445 -308 -982 -683 -992 -692 -9 -9 223 -12 952 -10 l965 2 0 -34
0 -35 -1014 0 -1014 0 -88 -59 c-49 -32 -189 -124 -311 -204 -123 -81 -223
-148 -223 -151 0 -3 680 -5 1510 -5 l1510 0 0 429 -1 429 -506 1 c-279 0 -508
2 -510 3 -2 3 462 320 592 405 l35 22 1 -62 c0 -35 0 -100 -1 -145 l-1 -83
195 0 196 0 0 540 c0 297 -3 540 -7 540 -5 0 -39 -23 -78 -50z"/>
<path d="M4470 3492 c-23 -24 -30 -39 -30 -71 0 -57 32 -91 92 -98 43 -5 50
-3 79 26 28 29 31 36 26 78 -3 26 -13 54 -25 65 -11 12 -39 22 -65 25 -41 5
-49 2 -77 -25z m120 -40 c29 -23 22 -67 -12 -76 -63 -16 -108 3 -108 48 0 44
78 62 120 28z"/>
<path d="M950 3475 l0 -25 105 0 105 0 0 25 0 25 -105 0 -105 0 0 -25z"/>
<path d="M956 3378 c-16 -63 0 -115 44 -141 92 -55 184 29 154 141 -4 15 -14
22 -29 22 -21 0 -22 -2 -13 -28 24 -62 -21 -117 -80 -96 -34 12 -50 54 -35 94
10 28 10 30 -12 30 -15 0 -25 -7 -29 -22z"/>
<path d="M4610 3265 l0 -45 -85 0 c-84 0 -85 0 -85 -25 l0 -25 100 0 100 0 0
70 c0 56 -3 70 -15 70 -11 0 -15 -12 -15 -45z"/>
<path d="M950 3165 c0 -25 1 -25 82 -25 l82 0 -82 -40 c-75 -37 -82 -43 -82
-70 l0 -30 105 0 c105 0 105 0 105 25 0 23 -3 24 -77 27 l-78 3 78 37 c71 35
77 40 77 68 l0 30 -105 0 -105 0 0 -25z"/>
<path d="M4469 3101 c-64 -64 -19 -171 71 -171 56 0 91 33 97 92 5 42 3 50
-25 78 -42 42 -101 42 -143 1z m116 -33 c49 -22 19 -88 -39 -88 -37 0 -76 24
-76 47 0 45 60 66 115 41z"/>
<path d="M950 2875 l0 -75 105 0 105 0 0 75 c0 68 -2 75 -20 75 -17 0 -20 -7
-20 -50 0 -47 -2 -50 -25 -50 -23 0 -25 4 -25 45 0 38 -3 45 -20 45 -17 0 -20
-7 -20 -45 0 -38 -3 -45 -20 -45 -17 0 -20 7 -20 50 0 43 -3 50 -20 50 -18 0
-20 -7 -20 -75z"/>
<path d="M4440 2865 c0 -24 2 -25 73 -26 l72 -1 -72 -34 c-66 -32 -73 -38 -73
-65 l0 -29 100 0 100 0 0 25 c0 24 -2 25 -72 26 l-73 0 73 35 c66 31 72 37 72
64 l0 30 -100 0 -100 0 0 -25z"/>
<path d="M950 2715 l0 -25 105 0 105 0 0 25 0 25 -105 0 -105 0 0 -25z"/>
<path d="M4446 2654 c-22 -57 12 -138 63 -149 80 -17 134 31 129 115 -3 39 -6
45 -28 48 -20 3 -23 1 -12 -9 20 -22 15 -76 -10 -93 -67 -47 -145 15 -108 85
9 16 7 19 -9 19 -10 0 -22 -7 -25 -16z"/>
<path d="M960 2621 c-24 -46 1 -129 46 -150 94 -42 176 40 148 147 -4 15 -14
22 -30 22 -21 0 -22 -2 -12 -30 21 -62 -18 -111 -77 -96 -36 9 -51 46 -38 91
10 31 9 35 -8 35 -10 0 -23 -9 -29 -19z"/>
<path d="M4440 2400 l0 -70 100 0 100 0 0 70 c0 56 -3 70 -15 70 -11 0 -15
-12 -15 -45 0 -43 -1 -45 -30 -45 -28 0 -30 2 -30 40 0 29 -4 40 -15 40 -11 0
-15 -11 -15 -40 0 -36 -2 -40 -25 -40 -23 0 -25 4 -25 45 0 33 -4 45 -15 45
-12 0 -15 -14 -15 -70z"/>
<path d="M4440 2225 c0 -78 3 -95 15 -95 10 0 15 11 15 35 l0 35 85 0 c84 0
85 0 85 25 0 25 -1 25 -85 25 l-85 0 0 35 c0 24 -5 35 -15 35 -12 0 -15 -17
-15 -95z"/>
<path d="M1770 1280 l0 -110 55 0 c96 0 155 41 155 107 -1 71 -57 113 -152
113 l-58 0 0 -110z m125 58 c46 -21 46 -95 0 -116 -14 -7 -37 -12 -50 -12 -24
0 -25 2 -25 70 0 68 1 70 25 70 13 0 36 -5 50 -12z"/>
<path d="M2020 1280 l0 -110 80 0 c73 0 80 2 80 20 0 18 -7 20 -55 20 -52 0
-55 1 -55 25 0 23 3 25 50 25 43 0 50 3 50 20 0 17 -7 20 -50 20 -47 0 -50 2
-50 25 0 24 3 25 55 25 48 0 55 2 55 20 0 18 -7 20 -80 20 l-80 0 0 -110z"/>
<path d="M2253 1380 c-12 -5 -25 -21 -29 -35 -11 -43 8 -67 62 -84 30 -10 49
-22 49 -31 0 -19 -46 -25 -86 -11 -27 9 -29 8 -29 -14 0 -20 6 -25 44 -30 60
-9 101 1 116 30 26 49 0 81 -82 99 -31 7 -38 33 -11 43 9 3 33 2 55 -4 36 -10
38 -9 38 12 0 15 -8 25 -22 29 -32 8 -79 6 -105 -4z"/>
<path d="M2495 1373 c-4 -10 -22 -60 -41 -110 l-34 -93 29 0 c20 0 30 6 34 20
4 16 14 20 52 20 38 0 48 -4 52 -20 4 -14 14 -20 34 -20 l29 0 -34 93 c-19 50
-37 100 -41 110 -5 11 -18 17 -40 17 -22 0 -35 -6 -40 -17z m53 -121 c-42 -7
-47 0 -30 42 l16 40 16 -40 c16 -37 16 -39 -2 -42z"/>
<path d="M2680 1280 l0 -110 25 0 c23 0 25 4 25 41 0 38 2 40 27 37 19 -2 32
-14 46 -40 15 -31 25 -38 48 -38 l29 0 -20 39 c-11 22 -24 42 -30 46 -7 4 -5
14 5 28 8 12 15 34 15 49 0 40 -33 58 -107 58 l-63 0 0 -110z m115 50 c9 -28
-2 -40 -36 -40 -26 0 -29 3 -29 30 0 27 3 30 29 30 21 0 32 -6 36 -20z"/>
<path d="M2910 1280 l0 -110 25 0 c23 0 25 4 25 40 0 36 3 40 24 40 18 0 31
-10 47 -40 18 -32 28 -40 52 -40 l29 0 -31 54 c-26 47 -28 56 -16 66 8 7 15
25 15 41 0 41 -32 59 -107 59 l-63 0 0 -110z m115 60 c14 -22 -6 -50 -36 -50
-26 0 -29 3 -29 30 0 27 3 30 29 30 17 0 33 -5 36 -10z"/>
<path d="M3194 1380 c-79 -32 -85 -158 -9 -194 113 -54 212 38 160 149 -24 49
-91 69 -151 45z m96 -50 c28 -28 27 -84 -2 -104 -31 -22 -64 -20 -88 4 -41 41
-12 120 45 120 14 0 34 -9 45 -20z"/>
<path d="M3400 1280 l0 -110 80 0 c73 0 80 2 80 20 0 18 -7 20 -55 20 l-55 0
0 90 c0 89 0 90 -25 90 l-25 0 0 -110z"/>
<path d="M3590 1280 l0 -110 80 0 c73 0 80 2 80 20 0 18 -7 20 -55 20 l-55 0
0 90 c0 89 0 90 -25 90 l-25 0 0 -110z"/>
<path d="M3808 1373 c-37 -23 -52 -63 -44 -115 12 -77 102 -112 178 -69 53 29
63 113 20 162 -35 40 -110 50 -154 22z m112 -43 c41 -41 12 -120 -45 -120 -36
0 -65 33 -65 74 0 59 68 88 110 46z"/>
</g>
</svg>
